<svg xmlns="http://www.w3.org/2000/svg" viewBox="0 0 423.3 210.85"><defs><style>.cls-1{fill:#1b1464;}</style></defs><title>brand</title><g id="Layer_2" data-name="Layer 2"><g id="Layer_1-2" data-name="Layer 1"><path class="cls-1" d="M39.65,40A2.5,2.5,0,0,1,39,41.33q-6,7.22-16.09,7.21-10.26,0-16.65-7Q0,34.75,0,24.42a24.92,24.92,0,0,1,6.09-17A20.47,20.47,0,0,1,22.25.13Q32.9.13,39,6.68A2,2,0,0,1,39.62,8q0,.63-2.29,4.64a25.93,25.93,0,0,1-2.88,4.51.86.86,0,0,1-.65.27,8.78,8.78,0,0,1-1.65-1.32,17.31,17.31,0,0,0-3.49-2.47,11.75,11.75,0,0,0-5.39-1.32,9.41,9.41,0,0,0-7.74,3.62,13,13,0,0,0-2.66,8.3,13.2,13.2,0,0,0,2.66,8.39,9.33,9.33,0,0,0,7.74,3.68A12.21,12.21,0,0,0,28.7,35a16.41,16.41,0,0,0,3.42-2.3,8.4,8.4,0,0,1,1.61-1.25.92.92,0,0,1,.66.36q.53.6,2.86,4.12A23.89,23.89,0,0,1,39.65,40Z"/><path class="cls-1" d="M88.92,24.35a24.14,24.14,0,0,1-6.55,17.21,22.3,22.3,0,0,1-16.92,7A22.25,22.25,0,0,1,48.57,41.5,24,24,0,0,1,42,24.35,24.12,24.12,0,0,1,48.57,7.14,22.21,22.21,0,0,1,65.45,0,22.21,22.21,0,0,1,82.3,7.14,24.21,24.21,0,0,1,88.92,24.35Zm-12.47-.06a12.39,12.39,0,0,0-3-8.4,10.1,10.1,0,0,0-8-3.62A10,10,0,0,0,57.59,16a12.32,12.32,0,0,0-3.13,8.32,12.29,12.29,0,0,0,2.93,8.39,10.62,10.62,0,0,0,16-.19A12.23,12.23,0,0,0,76.45,24.29Z"/><path class="cls-1" d="M137.85,2.24q0,3.75-.31,11.27t-.31,11.3V46.5c0,.59-.32.89-1,.89s-1.32,0-2.38.06-1.86.07-2.39.07-1.42,0-2.57-.13-2-.13-2.56-.13c-.4,0-.87-.37-1.42-1.09Q122.58,43,114.29,32,112,29,107.38,23a1.39,1.39,0,0,0-.49-.39.89.89,0,0,0-.27.72c0,2.55.07,6.36.22,11.45s.21,8.91.21,11.46c0,.76-.3,1.15-.89,1.15H94.78q-1,0-1-1,0-3.55.35-10.73t.34-10.76c0-2.52-.1-6.3-.31-11.32s-.31-8.79-.31-11.29c0-.48.42-.72,1.28-.72q1.9,0,4.71-.27c.44,0,1.3-.18,2.6-.42a15.27,15.27,0,0,1,2.6-.3c.26,0,.67.37,1.21,1.12l12.28,16.81c1.1,1.52,2.75,3.73,5,6.65q.83,1,1.41,1c.29,0,.43-.85.43-2.56,0-2.31-.13-5.77-.38-10.4s-.38-8.11-.38-10.44c0-.81.23-1.21.69-1.21q2,0,6-.17c2.66-.11,4.64-.16,6-.16C137.64,1.22,137.85,1.56,137.85,2.24Z"/><path class="cls-1" d="M188,2.24q0,3.75-.31,11.27t-.31,11.3V46.5c0,.59-.32.89-1,.89s-1.32,0-2.38.06-1.86.07-2.39.07-1.42,0-2.56-.13-2-.13-2.57-.13c-.4,0-.87-.37-1.42-1.09Q172.73,43,164.44,32q-2.26-3.06-6.91-9a1.39,1.39,0,0,0-.49-.39.89.89,0,0,0-.27.72c0,2.55.08,6.36.22,11.45s.21,8.91.21,11.46c0,.76-.29,1.15-.89,1.15H144.93q-1,0-1-1,0-3.55.35-10.73t.34-10.76c0-2.52-.1-6.3-.31-11.32S144,4.77,144,2.27c0-.48.43-.72,1.28-.72q1.91,0,4.71-.27c.44,0,1.3-.18,2.6-.42a15.38,15.38,0,0,1,2.6-.3c.26,0,.67.37,1.22,1.12l12.27,16.81c1.1,1.52,2.75,3.73,5,6.65q.83,1,1.41,1c.29,0,.43-.85.43-2.56,0-2.31-.12-5.77-.38-10.4s-.37-8.11-.37-10.44c0-.81.22-1.21.69-1.21,1.31,0,3.3-.06,5.95-.17s4.64-.16,6-.16C187.8,1.22,188,1.56,188,2.24Z"/><path class="cls-1" d="M227.82,37.15a41.23,41.23,0,0,1-.56,5.2,19.53,19.53,0,0,1-1,4.91,1.22,1.22,0,0,1-1.08.62,7.29,7.29,0,0,1-1-.1q-2.4-.33-14-.33l-7.54,0-7.5,0c-.72,0-1.09-.32-1.09-1q0-3.68.42-11.07t.41-11.07q0-3.75-.4-14c-.06-1.75-.19-4.38-.36-7.86L194,2c-.05-.5.23-.75.82-.75q2.43,0,7.32.13t7.32.13c1.6,0,4,0,7.24-.13s5.64-.13,7.24-.13c1.14,0,1.8.43,2,1.28q.17.76.51,4.59c.23,2.56.34,4.11.34,4.66s-.22.69-.66.69l-.69,0q-8.74-.73-15.73-.73c-1.16,0-1.87.28-2.14.82a10.5,10.5,0,0,0-.16,2.54,4.63,4.63,0,0,0,.66,3,2.8,2.8,0,0,0,2.14.63l1.28-.05c.64,0,1.16,0,1.58,0q4.14,0,8.39-.23l1.81-.17a15.54,15.54,0,0,1,1.78-.13c.53,0,.79.25.79.76a46.41,46.41,0,0,0-.59,5,51.67,51.67,0,0,0-.27,5.27c0,.44-.32.66-1,.66l-3-.33c-1.25-.13-4.11-.2-8.56-.2H209c-.9,0-1.42.22-1.58.66q0,.16,0,2a9.6,9.6,0,0,0,.33,3.22c.37.84,1.78,1.33,4.21,1.48h4.81c1.16,0,2.89-.1,5.18-.31s4-.31,5.15-.31C227.58,36,227.82,36.36,227.82,37.15Z"/><path class="cls-1" d="M270.64,40a2.5,2.5,0,0,1-.69,1.38q-6.06,7.22-16.1,7.21-10.26,0-16.65-7Q231,34.75,231,24.42a24.92,24.92,0,0,1,6.09-17A20.47,20.47,0,0,1,253.23.13Q263.9.13,270,6.68A2.08,2.08,0,0,1,270.6,8q0,.63-2.28,4.64a27.32,27.32,0,0,1-2.88,4.51.9.9,0,0,1-.66.27,8.78,8.78,0,0,1-1.65-1.32,17.27,17.27,0,0,0-3.48-2.47,11.83,11.83,0,0,0-5.4-1.32,9.39,9.39,0,0,0-7.73,3.62,12.93,12.93,0,0,0-2.67,8.3,13.15,13.15,0,0,0,2.67,8.39,9.31,9.31,0,0,0,7.73,3.68A12.15,12.15,0,0,0,259.68,35a16.15,16.15,0,0,0,3.42-2.3,8.77,8.77,0,0,1,1.61-1.25.92.92,0,0,1,.66.36q.53.6,2.87,4.12A23.89,23.89,0,0,1,270.64,40Z"/><path class="cls-1" d="M306.24,11.29q0,.66-.72.66c-.83,0-4.14-.17-9.9-.5-.14,5.55-.2,9.43-.2,11.62q0,3.88.31,11.68T296,46.43c0,.42-.1.68-.29.79a3.84,3.84,0,0,1-.92.17,48.76,48.76,0,0,1-5.8.26,46.41,46.41,0,0,1-5.95-.26,1,1,0,0,1-.92-1c0-2.59.1-6.47.32-11.65s.33-9.06.33-11.65c0-1.71-.08-5.53-.26-11.45-4.39.44-7.89.65-10.5.65-.35,0-.52-.1-.52-.32A18.71,18.71,0,0,1,272,9.41c.35-1.53.55-2.47.59-2.8.06-1,.14-2.06.23-3.09.15-1.64.42-2.47.79-2.47l.46,0a133,133,0,0,0,15.76.69q3,0,10.93-.63l4.31-.33a1.94,1.94,0,0,1,.76.08,1.29,1.29,0,0,1,.13.65c0,.59,0,1.41-.07,2.46s-.06,2-.06,2.47A20.11,20.11,0,0,0,306,8.9,20.21,20.21,0,0,1,306.24,11.29Z"/><path class="cls-1" d="M323.13,23.07q0,3.88.19,11.68c.14,5.2.2,9.09.2,11.68,0,.44-.1.72-.3.83a8.16,8.16,0,0,1-.85.13,50.65,50.65,0,0,1-5.73.26,42.94,42.94,0,0,1-6.12-.26c-.64-.13-.95-.47-.95-1q0,.52.29-5.79.6-13.33.6-17.51,0-3.53-.23-10.57c-.16-4.69-.23-8.21-.23-10.56q0-.72.75-.72c.68,0,1.71,0,3.08.1s2.4.1,3.08.1,1.68,0,3-.1,2.33-.1,3-.1.95.24.95.72c0,2.35-.12,5.87-.38,10.56S323.13,20.72,323.13,23.07Z"/><path class="cls-1" d="M373.87,2.24q0,3.75-.31,11.27t-.31,11.3V46.5c0,.59-.32.89-1,.89s-1.32,0-2.38.06-1.86.07-2.39.07-1.43,0-2.57-.13-2-.13-2.56-.13c-.4,0-.87-.37-1.42-1.09Q358.6,43,350.31,32,348,29,343.4,23a1.44,1.44,0,0,0-.5-.39.92.92,0,0,0-.26.72c0,2.55.07,6.36.21,11.45s.22,8.91.22,11.46c0,.76-.3,1.15-.89,1.15H330.79c-.63,0-1-.34-1-1q0-3.55.34-10.73c.24-4.78.35-8.37.35-10.76s-.1-6.3-.31-11.32-.31-8.79-.31-11.29c0-.48.42-.72,1.28-.72,1.27,0,2.84-.09,4.7-.27.44,0,1.31-.18,2.6-.42a15.49,15.49,0,0,1,2.6-.3c.27,0,.67.37,1.22,1.12l12.28,16.81c1.09,1.52,2.75,3.73,5,6.65.54.68,1,1,1.41,1s.43-.85.43-2.56c0-2.31-.13-5.77-.38-10.4s-.38-8.11-.38-10.44c0-.81.23-1.21.69-1.21,1.32,0,3.3-.06,6-.17s4.64-.16,6-.16C373.66,1.22,373.87,1.56,373.87,2.24Z"/><path class="cls-1" d="M423.3,46.33c0,.6-.26.89-.92.89a24.58,24.58,0,0,1-3.61-.72c-2-.48-3.2-.81-3.67-1a36,36,0,0,1-13.19,2.7q-10.17,0-16.69-6.78t-6.45-16.88q0-10.44,6.26-17.31Q391.48.13,401.78.13A23.49,23.49,0,0,1,411.19,2,17.83,17.83,0,0,1,418.69,8a2.57,2.57,0,0,1,.56,1.12c0,.7-1,2.28-2.94,4.72s-3.23,3.67-3.81,3.67A6.66,6.66,0,0,1,411,16.13a13.91,13.91,0,0,0-3.29-2.51,11.46,11.46,0,0,0-5.53-1.35A9.43,9.43,0,0,0,394.34,16a13.15,13.15,0,0,0-2.7,8.46q0,5.35,2.8,8.49t8.19,3.22a20.27,20.27,0,0,0,7.51-1.68q-.11-1.08-.6-5.52a47.72,47.72,0,0,1-.42-5.53c0-.42.14-.67.42-.76a1.64,1.64,0,0,1,.53-.07c.64,0,1.6.07,2.88.19s2.25.18,2.91.18,1.76-.05,3.16-.15,2.46-.15,3.16-.15.82.36.82,1.09q0,1.57-.18,4.77t-.18,4.77q0,4.24.63,12.7Z"/><path class="cls-1" d="M184.84,127.24c0,.46-.09.75-.29.86a2.78,2.78,0,0,1-.92.16c-1.34.14-3.23.2-5.66.2a46.16,46.16,0,0,1-6.07-.2c-.61-.13-.91-.42-.91-.89q0-2.59.25-7.81c.16-3.48.25-6.08.25-7.82,0-.85-.25-1.35-.73-1.48a62.7,62.7,0,0,0-8-.26,64,64,0,0,0-8,.26c-.49.11-.73.61-.73,1.48,0,1.71.06,4.28.17,7.69s.16,6,.16,7.68a1,1,0,0,1-.89,1.15,49.91,49.91,0,0,1-6.18.2,45.48,45.48,0,0,1-5.66-.2q-1-.16-1-1,0-3.55.35-10.72c.23-4.79.34-8.37.34-10.77s-.11-6.36-.33-11.46-.32-8.93-.32-11.47c0-.49.23-.73.69-.73.68,0,1.7,0,3.07.1s2.4.1,3.08.1,1.76,0,3.18-.1,2.47-.1,3.17-.1c.37,0,.56.2.56.6q0,2.46-.36,7.38c-.24,3.28-.36,5.75-.36,7.39,0,.77.21,1.22.62,1.35a62.85,62.85,0,0,0,8.43.26,63.33,63.33,0,0,0,8.16-.26c.53-.13.79-.58.79-1.35,0-1.58-.08-4-.23-7.16s-.23-5.59-.23-7.19c0-.68.27-1,.82-1s1.61,0,2.91.1,2.29.1,2.95.1,1.61,0,2.91-.1,2.29-.1,3-.1.95.27.95.79c0,2.53-.11,6.33-.31,11.42s-.32,8.91-.32,11.45.12,6,.35,10.77S184.84,124.87,184.84,127.24Z"/><path class="cls-1" d="M224.6,118a43.48,43.48,0,0,1-.56,5.2,20.56,20.56,0,0,1-1,4.9,1.24,1.24,0,0,1-1.09.63,9.45,9.45,0,0,1-1-.1q-2.4-.33-14-.33l-7.53,0q-5,0-7.51,0c-.72,0-1.08-.31-1.08-.95q0-3.69.41-11.07t.41-11.08q0-3.75-.39-14-.1-2.64-.37-7.87l0-.46c0-.5.23-.76.83-.76,1.62,0,4.06,0,7.32.13s5.69.14,7.32.14,4,0,7.24-.14,5.64-.13,7.24-.13c1.14,0,1.8.43,2,1.29q.17.75.51,4.59c.23,2.55.35,4.11.35,4.65s-.22.69-.66.69l-.69,0q-8.76-.72-15.73-.72c-1.16,0-1.88.27-2.14.82a10.39,10.39,0,0,0-.16,2.53,4.74,4.74,0,0,0,.65,3,2.88,2.88,0,0,0,2.14.62l1.29,0c.63,0,1.16,0,1.58,0,2.76,0,5.56-.07,8.39-.23l1.81-.16a15.39,15.39,0,0,1,1.77-.13c.53,0,.79.25.79.75,0-.46-.19,1.22-.59,5-.17,1.75-.26,3.51-.26,5.26q0,.66-1,.66l-3-.33q-1.87-.2-8.55-.2h-3.49c-.9,0-1.43.22-1.58.66q0,.16,0,2a9.76,9.76,0,0,0,.32,3.23c.38.83,1.78,1.33,4.22,1.48h4.8c1.16,0,2.89-.1,5.18-.31s4-.32,5.16-.32C224.36,116.84,224.6,117.24,224.6,118Z"/><path class="cls-1" d="M259.22,128.82q-2.84,0-7.37-.13l-7.38-.16-9.84-.13c-1,0-2.4,0-4.24-.14-.64-.11-.95-.45-.95-1,0-2.39,0-6,.11-10.74s.12-8.35.12-10.75-.08-6.35-.23-11.43-.23-8.89-.23-11.44c0-.48.32-.72,1-.72s1.64,0,2.95.1,2.27.1,2.91.1,1.8,0,3.23-.12,2.5-.11,3.22-.11c.33,0,.48.2.46.62l0,.43q-.39,6.18-.89,18.59l0,8.69q0,4.22,0,6.15c0,.27,0,.53.07.79s.18.43.49.5h.85c2,0,4.93-.11,8.87-.32s6.9-.31,8.87-.31c.59,0,.89.25.89.76a49.7,49.7,0,0,1-.82,9.71q-.17.86-.69,1A7.47,7.47,0,0,1,259.22,128.82Z"/><path class="cls-1" d="M305.26,99.7q0,8-4.18,12.9-4.49,5.24-12.34,5.23c-.88,0-2.2,0-4-.15s-3.09-.14-4-.14-1.42.4-1.42,1.21c0,1,.1,2.52.3,4.51s.29,3.49.29,4.48q0,.75-.69.75c-1.34,0-3.34,0-6-.11s-4.69-.12-6-.12a.84.84,0,0,1-1-.95c0-2.44,0-6.09.12-11s.11-8.54.11-11q0-10.33-.89-21.72l0-.46c0-.42.29-.67,1-.76q2.57-.33,11.32-.33c3.44,0,6.75,0,9.91.13,5.19.16,9.39,1.79,12.57,4.91S305.26,94.52,305.26,99.7Zm-13.13.53q0-7.68-7.47-7.67c-3.51,0-5.36.2-5.53.59s-.23,2.82-.23,7.6c0,.68,0,1.69.08,3s.08,2.33.08,3c0,.44,2,.66,5.92.66Q292.14,107.43,292.13,100.23Z"/><path class="cls-1" d="M323.13,103.94q0,3.89.19,11.69c.14,5.2.2,9.09.2,11.68,0,.44-.1.71-.3.82a5.84,5.84,0,0,1-.85.13,48,48,0,0,1-5.73.27,40.86,40.86,0,0,1-6.12-.27c-.64-.13-.95-.47-.95-1q0,.53.29-5.79.6-13.32.6-17.51,0-3.51-.23-10.56c-.16-4.69-.23-8.22-.23-10.56a.65.65,0,0,1,.75-.73c.68,0,1.71,0,3.08.1s2.4.1,3.08.1,1.68,0,3-.1,2.33-.1,3-.1.95.24.95.73c0,2.34-.12,5.87-.38,10.56S323.13,101.6,323.13,103.94Z"/><path class="cls-1" d="M373.87,83.11q0,3.75-.31,11.27t-.31,11.31v21.68c0,.6-.32.89-1,.89s-1.32,0-2.38.07-1.86.07-2.39.07-1.43-.05-2.57-.14-2-.13-2.56-.13c-.4,0-.87-.36-1.42-1.08q-2.37-3.19-10.66-14.15-2.28-3.08-6.91-9a1.45,1.45,0,0,0-.5-.4,1,1,0,0,0-.26.73q0,3.81.21,11.45t.22,11.45c0,.77-.3,1.15-.89,1.15H330.79c-.63,0-1-.34-1-1q0-3.55.34-10.72c.24-4.79.35-8.37.35-10.77s-.1-6.29-.31-11.32-.31-8.78-.31-11.28c0-.49.42-.73,1.28-.73,1.27,0,2.84-.09,4.7-.26.44,0,1.31-.19,2.6-.43a15.49,15.49,0,0,1,2.6-.3c.27,0,.67.38,1.22,1.12l12.28,16.82q1.64,2.26,5,6.65c.54.68,1,1,1.41,1s.43-.86.43-2.57q0-3.45-.38-10.4c-.25-4.63-.38-8.1-.38-10.43,0-.81.23-1.22.69-1.22,1.32,0,3.3,0,6-.16s4.64-.17,6-.17C373.66,82.09,373.87,82.43,373.87,83.11Z"/><path class="cls-1" d="M423.3,127.21c0,.59-.26.89-.92.89a23.81,23.81,0,0,1-3.61-.73c-2-.48-3.2-.81-3.67-1a36,36,0,0,1-13.19,2.7q-10.17,0-16.69-6.78t-6.45-16.89q0-10.42,6.26-17.3Q391.48,81,401.78,81a23.32,23.32,0,0,1,9.41,1.91,17.75,17.75,0,0,1,7.5,5.92,2.57,2.57,0,0,1,.56,1.12q0,1-2.94,4.72c-2,2.45-3.23,3.67-3.81,3.67A6.57,6.57,0,0,1,411,97a13.85,13.85,0,0,0-3.29-2.5,11.46,11.46,0,0,0-5.53-1.35,9.43,9.43,0,0,0-7.83,3.69,13.14,13.14,0,0,0-2.7,8.45q0,5.37,2.8,8.49t8.19,3.23a20.27,20.27,0,0,0,7.51-1.68c-.07-.72-.27-2.57-.6-5.53a47.41,47.41,0,0,1-.42-5.53c0-.41.14-.67.42-.75a1.4,1.4,0,0,1,.53-.07q1,0,2.88.18t2.91.18c.7,0,1.76,0,3.16-.15s2.46-.14,3.16-.14.82.36.82,1.08q0,1.59-.18,4.77c-.12,2.13-.18,3.72-.18,4.78q0,4.25.63,12.7Z"/><path class="cls-1" d="M172.83,194a14.54,14.54,0,0,1-5.62,11.45,24.06,24.06,0,0,1-12,5.37l-.42,0q-.77,0-3.36-4.62t-2.6-5.65c0-.24.17-.39.49-.46a34.7,34.7,0,0,0,6.32-1.84,5.45,5.45,0,0,0,3.43-5.07c0-1.42-.75-3-2.24-4.77-2.59-3-4-4.64-4.21-5a13.35,13.35,0,0,1-2.28-7.57q0-6,5.57-10A24.87,24.87,0,0,1,167,161.62l.56,0c.33,0,.59.26.79.79q.86,2.4,4,8.68a.79.79,0,0,1,.1.33c0,.38-.2.56-.59.56a6,6,0,0,1-.89-.1,7.34,7.34,0,0,0-5.1,1,3.86,3.86,0,0,0-2.14,3.49c0,1.34.79,3,2.37,4.94l4.38,5.52A13.22,13.22,0,0,1,172.83,194Z"/><path class="cls-1" d="M224,186.1a24.12,24.12,0,0,1-6.55,17.21,23.71,23.71,0,0,1-33.8-.06,25.72,25.72,0,0,1,0-34.36,23.49,23.49,0,0,1,33.73,0A24.21,24.21,0,0,1,224,186.1ZM211.53,186a12.34,12.34,0,0,0-3-8.39,10.37,10.37,0,0,0-15.86.13,13,13,0,0,0-.2,16.71,10.6,10.6,0,0,0,16-.19A12.22,12.22,0,0,0,211.53,186Z"/><path class="cls-1" d="M259.15,209.7c-1.89,0-4.34,0-7.37-.13l-7.37-.17-9.84-.13c-1,0-2.4,0-4.25-.13a1,1,0,0,1-.95-1q0-3.59.12-10.75t.11-10.74q0-3.82-.23-11.44c-.15-5.07-.23-8.89-.23-11.43,0-.48.33-.73,1-.73s1.64,0,2.94.1,2.28.1,2.91.1,1.8,0,3.23-.11,2.5-.12,3.22-.12c.33,0,.49.21.47.63l0,.42q-.39,6.19-.89,18.6l0,8.69q0,4.2,0,6.15c0,.26.05.53.07.79a.53.53,0,0,0,.49.49h.86q3,0,8.87-.31c3.94-.21,6.89-.31,8.87-.31.59,0,.88.25.88.75a49.63,49.63,0,0,1-.82,9.71q-.17.85-.69,1A6.17,6.17,0,0,1,259.15,209.7Z"/><path class="cls-1" d="M284.36,209.27a47.55,47.55,0,0,1-5.07-.13,1.64,1.64,0,0,1-1.05-1q-3.75-7.4-7.54-14.84-6-11.94-5.95-13.52c0-1.74.06-4.34.18-7.82s.18-6.08.18-7.81c0-.82.22-1.22.66-1.22q2,0,6,.16t6,.17c.55,0,.82.23.82.69q0,2.67-.38,8t-.38,8q0,2.06,6.68,14.58,1.82-3.26,4.12-8,3.09-6.39,3.09-7.84c0-1.6,0-4-.06-7.22s-.07-5.62-.07-7.22q0-.88.3-1H293c1.21,0,3-.06,5.48-.18s4.27-.18,5.48-.18c.66,0,1,.26,1,.79,0,1.69,0,4.24-.08,7.65s-.08,6-.08,7.68q0,2-6.48,15-2.56,4.68-7.41,14.08a2.83,2.83,0,0,1-.44.81,2.69,2.69,0,0,1-.84.15C288.44,209.23,286.71,209.27,284.36,209.27Z"/><path class="cls-1" d="M323.13,184.82q0,3.88.19,11.68c.14,5.2.2,9.1.2,11.68,0,.44-.1.72-.3.83a8.16,8.16,0,0,1-.85.13,50.65,50.65,0,0,1-5.73.26,42.94,42.94,0,0,1-6.12-.26c-.64-.13-.95-.47-.95-1q0,.52.29-5.79.6-13.34.6-17.51,0-3.52-.23-10.56c-.16-4.7-.23-8.22-.23-10.57q0-.72.75-.72c.68,0,1.71,0,3.08.1s2.4.1,3.08.1,1.68,0,3-.1,2.33-.1,3-.1.95.24.95.72c0,2.35-.12,5.87-.38,10.57S323.13,182.47,323.13,184.82Z"/><path class="cls-1" d="M373.87,164q0,3.75-.31,11.27t-.31,11.3v21.69c0,.59-.32.89-1,.89s-1.32,0-2.38.06-1.86.07-2.39.07-1.43,0-2.57-.13-2-.13-2.56-.13c-.4,0-.87-.36-1.42-1.09q-2.37-3.19-10.66-14.15-2.28-3.06-6.91-9a1.44,1.44,0,0,0-.5-.39.92.92,0,0,0-.26.72q0,3.82.21,11.45c.15,5.1.22,8.91.22,11.46,0,.76-.3,1.15-.89,1.15H330.79c-.63,0-1-.34-1-1q0-3.56.34-10.73c.24-4.78.35-8.37.35-10.76s-.1-6.3-.31-11.32-.31-8.79-.31-11.29c0-.48.42-.72,1.28-.72,1.27,0,2.84-.09,4.7-.27.44,0,1.31-.18,2.6-.42a15.49,15.49,0,0,1,2.6-.3c.27,0,.67.37,1.22,1.12l12.28,16.82c1.09,1.51,2.75,3.73,5,6.64.54.68,1,1,1.41,1s.43-.85.43-2.56c0-2.31-.13-5.77-.38-10.4s-.38-8.11-.38-10.43c0-.82.23-1.22.69-1.22,1.32,0,3.3-.06,6-.17s4.64-.16,6-.16C373.66,163,373.87,163.31,373.87,164Z"/><path class="cls-1" d="M423.3,208.09c0,.59-.26.88-.92.88a24.58,24.58,0,0,1-3.61-.72c-2-.48-3.2-.81-3.67-1a36,36,0,0,1-13.19,2.7q-10.17,0-16.69-6.78t-6.45-16.88q0-10.43,6.26-17.31,6.45-7.11,16.75-7.11a23.49,23.49,0,0,1,9.41,1.91,17.91,17.91,0,0,1,7.5,5.92,2.57,2.57,0,0,1,.56,1.12c0,.71-1,2.28-2.94,4.73s-3.23,3.67-3.81,3.67a6.57,6.57,0,0,1-1.51-1.35,13.59,13.59,0,0,0-3.29-2.5,11.46,11.46,0,0,0-5.53-1.35,9.42,9.42,0,0,0-7.83,3.68,13.15,13.15,0,0,0-2.7,8.46q0,5.37,2.8,8.49t8.19,3.22a20.44,20.44,0,0,0,7.51-1.67q-.11-1.1-.6-5.53a47.56,47.56,0,0,1-.42-5.53c0-.42.14-.67.42-.76a1.7,1.7,0,0,1,.53-.06q1,0,2.88.18t2.91.18c.7,0,1.76-.05,3.16-.15s2.46-.15,3.16-.15.82.36.82,1.09q0,1.58-.18,4.77t-.18,4.77q0,4.24.63,12.7Z"/></g></g></svg>